REM DIRINDEX 1\2\5,1\2\6,1\2\7,1\2\8,1\3\9,1\3\10,1\3\11,1\4\12,1\4\13,1\4\14,1\4\15,1\4\16
REM DIRNAME folder01,folder02,folder03,folder04,folder05,folder06,folder07,folder08,folder09,folder10,folder11,folder12,folder13,folder14,folder15,folder16
TITLE ""
FILE "1200_sec03_0828_0836.mp3" MP3
  TRACK 01 AUDIO
    TITLE "0:"
    INDEX 01 00:00:00
  TRACK 02 AUDIO
    TITLE "12:cjc034_06980"
    INDEX 01 00:00:21
  TRACK 03 AUDIO
    TITLE "0:"
    INDEX 01 00:01:50
  TRACK 04 AUDIO
    TITLE "13:cjc034_06981"
    INDEX 01 00:02:14
  TRACK 05 AUDIO
    TITLE "0:"
    INDEX 01 00:03:29
  TRACK 06 AUDIO
    TITLE "14:cjc034_06982"
    INDEX 01 00:03:64
  TRACK 07 AUDIO
    TITLE "0:"
    INDEX 01 00:05:18
  TRACK 08 AUDIO
    TITLE "15:cjc034_06983"
    INDEX 01 00:05:56
  TRACK 09 AUDIO
    TITLE "0:"
    INDEX 01 00:08:70
  TRACK 10 AUDIO
    TITLE "12:cjc034_06984"
    INDEX 01 00:10:35
  TRACK 11 AUDIO
    TITLE "0:"
    INDEX 01 00:11:64
  TRACK 12 AUDIO
    TITLE "13:cjc034_06985"
    INDEX 01 00:12:28
  TRACK 13 AUDIO
    TITLE "0:"
    INDEX 01 00:13:49
  TRACK 14 AUDIO
    TITLE "14:cjc034_06986"
    INDEX 01 00:14:11
  TRACK 15 AUDIO
    TITLE "0:"
    INDEX 01 00:15:40
  TRACK 16 AUDIO
    TITLE "15:cjc034_06987"
    INDEX 01 00:16:04
  TRACK 17 AUDIO
    TITLE "0:"
    INDEX 01 00:19:30
  TRACK 18 AUDIO
    TITLE "16:cjc034_06988"
    INDEX 01 00:20:67
  TRACK 19 AUDIO
    TITLE "0:"
    INDEX 01 00:25:54
  TRACK 20 AUDIO
    TITLE "12:cjc034_06989"
    INDEX 01 00:26:56
  TRACK 21 AUDIO
    TITLE "0:"
    INDEX 01 00:28:04
  TRACK 22 AUDIO
    TITLE "13:cjc034_06990"
    INDEX 01 00:28:39
  TRACK 23 AUDIO
    TITLE "0:"
    INDEX 01 00:29:56
  TRACK 24 AUDIO
    TITLE "14:cjc034_06991"
    INDEX 01 00:30:12
  TRACK 25 AUDIO
    TITLE "0:"
    INDEX 01 00:31:35
  TRACK 26 AUDIO
    TITLE "15:cjc034_06992"
    INDEX 01 00:31:71
  TRACK 27 AUDIO
    TITLE "0:"
    INDEX 01 00:35:35
  TRACK 28 AUDIO
    TITLE "12:cjc034_06993"
    INDEX 01 00:36:66
  TRACK 29 AUDIO
    TITLE "0:"
    INDEX 01 00:38:08
  TRACK 30 AUDIO
    TITLE "13:cjc034_06994"
    INDEX 01 00:38:35
  TRACK 31 AUDIO
    TITLE "0:"
    INDEX 01 00:39:51
  TRACK 32 AUDIO
    TITLE "14:cjc034_06995"
    INDEX 01 00:40:09
  TRACK 33 AUDIO
    TITLE "0:"
    INDEX 01 00:41:28
  TRACK 34 AUDIO
    TITLE "15:cjc034_06996"
    INDEX 01 00:41:57
  TRACK 35 AUDIO
    TITLE "0:"
    INDEX 01 00:45:08
  TRACK 36 AUDIO
    TITLE "12:cjc034_06997"
    INDEX 01 00:46:47
  TRACK 37 AUDIO
    TITLE "0:"
    INDEX 01 00:47:62
  TRACK 38 AUDIO
    TITLE "13:cjc034_06998"
    INDEX 01 00:48:22
  TRACK 39 AUDIO
    TITLE "0:"
    INDEX 01 00:49:18
  TRACK 40 AUDIO
    TITLE "14:cjc034_06999"
    INDEX 01 00:49:51
  TRACK 41 AUDIO
    TITLE "0:"
    INDEX 01 00:50:66
  TRACK 42 AUDIO
    TITLE "15:cjc034_07000"
    INDEX 01 00:51:22
  TRACK 43 AUDIO
    TITLE "0:"
    INDEX 01 00:56:06
  TRACK 44 AUDIO
    TITLE "12:cjc034_07001"
    INDEX 01 00:57:37
  TRACK 45 AUDIO
    TITLE "0:"
    INDEX 01 00:58:50
  TRACK 46 AUDIO
    TITLE "13:cjc034_07002"
    INDEX 01 00:59:08
  TRACK 47 AUDIO
    TITLE "0:"
    INDEX 01 01:00:06
  TRACK 48 AUDIO
    TITLE "14:cjc034_07003"
    INDEX 01 01:00:39
  TRACK 49 AUDIO
    TITLE "0:"
    INDEX 01 01:01:50
  TRACK 50 AUDIO
    TITLE "15:cjc034_07004"
    INDEX 01 01:02:10
  TRACK 51 AUDIO
    TITLE "0:"
    INDEX 01 01:05:54
  TRACK 52 AUDIO
    TITLE "12:cjc034_07005"
    INDEX 01 01:07:12
  TRACK 53 AUDIO
    TITLE "0:"
    INDEX 01 01:08:15
  TRACK 54 AUDIO
    TITLE "13:cjc034_07006"
    INDEX 01 01:08:48
  TRACK 55 AUDIO
    TITLE "0:"
    INDEX 01 01:11:35
  TRACK 56 AUDIO
    TITLE "14:cjc034_07007"
    INDEX 01 01:11:64
  TRACK 57 AUDIO
    TITLE "0:"
    INDEX 01 01:12:68
  TRACK 58 AUDIO
    TITLE "15:cjc034_07008"
    INDEX 01 01:13:32
  TRACK 59 AUDIO
    TITLE "0:"
    INDEX 01 01:16:54
  TRACK 60 AUDIO
    TITLE "12:cjc034_07009"
    INDEX 01 01:18:15
  TRACK 61 AUDIO
    TITLE "0:"
    INDEX 01 01:19:19
  TRACK 62 AUDIO
    TITLE "13:cjc034_07010"
    INDEX 01 01:19:60
  TRACK 63 AUDIO
    TITLE "0:"
    INDEX 01 01:20:69
  TRACK 64 AUDIO
    TITLE "14:cjc034_07011"
    INDEX 01 01:21:27
  TRACK 65 AUDIO
    TITLE "0:"
    INDEX 01 01:22:29
  TRACK 66 AUDIO
    TITLE "15:cjc034_07012"
    INDEX 01 01:22:68
  TRACK 67 AUDIO
    TITLE "0:"
    INDEX 01 01:26:54
  TRACK 68 AUDIO
    TITLE "12:cjc034_07013"
    INDEX 01 01:28:14
  TRACK 69 AUDIO
    TITLE "0:"
    INDEX 01 01:29:13
  TRACK 70 AUDIO
    TITLE "13:cjc034_07014"
    INDEX 01 01:29:46
  TRACK 71 AUDIO
    TITLE "0:"
    INDEX 01 01:30:36
  TRACK 72 AUDIO
    TITLE "14:cjc034_07015"
    INDEX 01 01:30:69
  TRACK 73 AUDIO
    TITLE "0:"
    INDEX 01 01:31:71
  TRACK 74 AUDIO
    TITLE "15:cjc034_07016"
    INDEX 01 01:32:29
  TRACK 75 AUDIO
    TITLE "0:"
    INDEX 01 01:35:61
